<svg width="117" height="116" viewBox="0 0 117 116" fill="none" xmlns="http://www.w3.org/2000/svg">
<rect x="0.5" width="116" height="116" rx="58" fill="#FFD1C3"/>
<mask id="mask0_1415_3356" style="mask-type:alpha" maskUnits="userSpaceOnUse" x="0" y="0" width="117" height="116">
<rect x="0.5" width="116" height="116" rx="58" fill="#210C00"/>
</mask>
<g mask="url(#mask0_1415_3356)">
<path d="M118.804 81.2554C118.804 46.9516 97.6015 34.0532 71.4455 34.0532C45.2896 34.0532 24.0869 46.9516 24.0869 81.2554C24.0869 101.159 40.0306 125.816 53.4142 140.582C54.1263 141.15 55.1615 140.871 55.5227 140.014C56.8531 136.836 61.591 130.531 71.0843 140.575C80.6748 150.724 86.9411 142.715 86.9411 142.715C86.9411 142.715 118.804 101.413 118.804 81.2589V81.2554Z" fill="#FF5F2C"/>
<path d="M71.3866 106.543C88.6522 106.543 102.649 94.3726 102.649 79.3594C102.649 64.3462 88.6522 52.1757 71.3866 52.1757C54.121 52.1757 40.1245 64.3462 40.1245 79.3594C40.1245 94.3726 54.121 106.543 71.3866 106.543Z" fill="#17171B"/>
<path d="M68.6665 86.0126C68.6665 86.0126 71.3794 88.5567 74.1061 86.0126" stroke="#FBFCFD" stroke-width="0.907253" stroke-miterlimit="10" stroke-linecap="round"/>
<path d="M58.069 89.1178C60.1792 89.1178 61.8899 87.4014 61.8899 85.2842C61.8899 83.1669 60.1792 81.4506 58.069 81.4506C55.9587 81.4506 54.248 83.1669 54.248 85.2842C54.248 87.4014 55.9587 89.1178 58.069 89.1178Z" fill="#FF5F2C"/>
<path d="M85.8571 89.1178C87.9673 89.1178 89.678 87.4014 89.678 85.2842C89.678 83.1669 87.9673 81.4506 85.8571 81.4506C83.7468 81.4506 82.0361 83.1669 82.0361 85.2842C82.0361 87.4014 83.7468 89.1178 85.8571 89.1178Z" fill="#FF5F2C"/>
<path d="M64.023 86.6782C67.6622 86.6782 70.6123 82.2312 70.6123 76.7456C70.6123 71.2601 67.6622 66.8131 64.023 66.8131C60.3838 66.8131 57.4336 71.2601 57.4336 76.7456C57.4336 82.2312 60.3838 86.6782 64.023 86.6782Z" fill="#FBFCFD"/>
<path d="M61.4413 82.9387C63.3405 82.9387 64.8801 80.6184 64.8801 77.7563C64.8801 74.8942 63.3405 72.574 61.4413 72.574C59.5421 72.574 58.0024 74.8942 58.0024 77.7563C58.0024 80.6184 59.5421 82.9387 61.4413 82.9387Z" fill="#17171B"/>
<path d="M79.209 86.6782C82.8482 86.6782 85.7983 82.2312 85.7983 76.7456C85.7983 71.2601 82.8482 66.8131 79.209 66.8131C75.5698 66.8131 72.6196 71.2601 72.6196 76.7456C72.6196 82.2312 75.5698 86.6782 79.209 86.6782Z" fill="#FBFCFD"/>
<path d="M76.6317 82.9387C78.5309 82.9387 80.0705 80.6184 80.0705 77.7563C80.0705 74.8942 78.5309 72.574 76.6317 72.574C74.7325 72.574 73.1929 74.8942 73.1929 77.7563C73.1929 80.6184 74.7325 82.9387 76.6317 82.9387Z" fill="#17171B"/>
<path d="M24.0044 24.4442C24.0044 29.6762 20.0705 33.9857 15 34.5853C15.0066 34.6347 15.0132 34.6841 15.0198 34.7369C19.6785 35.297 23.3685 38.987 23.9286 43.6457C23.9781 43.6523 24.0275 43.6589 24.0802 43.6655C24.6798 38.595 28.9893 34.6611 34.2213 34.6611C28.5808 34.6611 24.0077 30.088 24.0077 24.4475" fill="#FF5F2C"/>
<path d="M40.8109 17.4C40.8109 20.2652 38.6566 22.6251 35.8799 22.9535C35.8835 22.9805 35.8871 23.0076 35.8907 23.0365C38.4419 23.3432 40.4627 25.3639 40.7694 27.9151C40.7964 27.9187 40.8235 27.9224 40.8524 27.926C41.1807 25.1492 43.5407 22.995 46.4058 22.995C43.317 22.995 40.8127 20.4907 40.8127 17.4018" fill="#17171B"/>
</g>
</svg>
