<svg width="28" height="28" viewBox="0 0 28 28" fill="none" xmlns="http://www.w3.org/2000/svg">
<path d="M14 13.5C14.3283 13.5 14.6534 13.4353 14.9567 13.3097C15.26 13.1841 15.5356 12.9999 15.7678 12.7678C15.9999 12.5356 16.1841 12.26 16.3097 11.9567C16.4353 11.6534 16.5 11.3283 16.5 11C16.5 10.337 16.2366 9.70107 15.7678 9.23223C15.2989 8.76339 14.663 8.5 14 8.5C13.337 8.5 12.7011 8.76339 12.2322 9.23223C11.7634 9.70107 11.5 10.337 11.5 11C11.5 11.3283 11.5647 11.6534 11.6903 11.9567C11.8159 12.26 12.0001 12.5356 12.2322 12.7678C12.7011 13.2366 13.337 13.5 14 13.5ZM14 4C17.86 4 21 7.13 21 11C21 16.25 14 24 14 24C14 24 7 16.25 7 11C7 9.14348 7.7375 7.36301 9.05025 6.05025C10.363 4.7375 12.1435 4 14 4Z" />
</svg>
