<svg width="28" height="28" viewBox="0 0 28 28" fill="none" xmlns="http://www.w3.org/2000/svg">
<path d="M12.55 4.54321C12.9558 4.1924 13.4693 4 14 4C14.5307 4 15.0442 4.1924 15.45 4.54321L22.2 10.3853C22.708 10.8233 23 11.4685 23 12.1497V22.2048C23 22.6809 22.8156 23.1375 22.4874 23.4742C22.1592 23.8109 21.7141 24 21.25 24H18.25C17.7859 24 17.3408 23.8109 17.0126 23.4742C16.6844 23.1375 16.5 22.6809 16.5 22.2048V17.0757C16.5 16.8716 16.421 16.676 16.2803 16.5317C16.1397 16.3874 15.9489 16.3063 15.75 16.3063H12.25C12.0511 16.3063 11.8603 16.3874 11.7197 16.5317C11.579 16.676 11.5 16.8716 11.5 17.0757V22.2048C11.5 22.6809 11.3156 23.1375 10.9874 23.4742C10.6592 23.8109 10.2141 24 9.75 24H6.75C6.52019 24 6.29262 23.9536 6.0803 23.8633C5.86798 23.7731 5.67507 23.6409 5.51256 23.4742C5.35006 23.3075 5.22116 23.1096 5.13321 22.8918C5.04527 22.674 5 22.4406 5 22.2048V12.1487C5 11.4685 5.292 10.8233 5.8 10.3842L12.55 4.54321Z" />
</svg>
