<svg width="28" height="28" viewBox="0 0 28 28" fill="none" xmlns="http://www.w3.org/2000/svg">
<path d="M18 16C19.2885 16.0001 20.5272 16.4975 21.4578 17.3887C22.3884 18.2798 22.9391 19.4958 22.995 20.783L23 21V22C23.0002 22.5046 22.8096 22.9906 22.4665 23.3605C22.1234 23.7305 21.6532 23.9572 21.15 23.995L21 24H7C6.49542 24.0002 6.00943 23.8096 5.63945 23.4665C5.26947 23.1234 5.04284 22.6532 5.005 22.15L5 22V21C5.00007 19.7115 5.49754 18.4728 6.38866 17.5422C7.27978 16.6116 8.49575 16.0609 9.783 16.005L10 16H18ZM14 4C15.3261 4 16.5979 4.52678 17.5355 5.46447C18.4732 6.40215 19 7.67392 19 9C19 10.3261 18.4732 11.5979 17.5355 12.5355C16.5979 13.4732 15.3261 14 14 14C12.6739 14 11.4021 13.4732 10.4645 12.5355C9.52678 11.5979 9 10.3261 9 9C9 7.67392 9.52678 6.40215 10.4645 5.46447C11.4021 4.52678 12.6739 4 14 4Z" />
</svg>
