<svg width="18" height="18" viewBox="0 0 18 18" fill="none" xmlns="http://www.w3.org/2000/svg">
<rect width="18" height="18" rx="9" fill="black" fill-opacity="0.6"/>
<path d="M5.5051 5C5.37734 5 5.24373 5.04297 5.14622 5.1404C4.95126 5.33576 4.95126 5.66352 5.14622 5.85888L8.2823 8.99713L5.14622 12.1354C4.95126 12.3307 4.95126 12.6585 5.14622 12.8539C5.34124 13.0487 5.66896 13.0487 5.86398 12.8539L9 9.71561L12.136 12.8539C12.331 13.0487 12.6588 13.0487 12.8538 12.8539C13.0487 12.6585 13.0487 12.3307 12.8538 12.1354L9.7177 8.99713L12.8538 5.85888C13.0487 5.66352 13.0487 5.33576 12.8538 5.1404C12.7563 5.04297 12.6226 5 12.4949 5C12.3671 5 12.2336 5.04297 12.136 5.1404L9 8.27864L5.86398 5.1404C5.76647 5.04297 5.63286 5 5.5051 5Z" fill="#FBFCFD"/>
</svg>
