<svg width="24" height="24" viewBox="0 0 24 24" fill="none" xmlns="http://www.w3.org/2000/svg">
<path d="M13.925 2.50405C14.317 2.50402 14.7023 2.60643 15.0426 2.80112C15.3829 2.99582 15.6664 3.27605 15.865 3.61405L16.679 5.00105H18.75C19.6118 5.00105 20.4383 5.34332 21.0477 5.9526C21.6572 6.56188 21.9997 7.38827 22 8.25005V17.7501C22 18.1768 21.9159 18.5995 21.7526 18.9938C21.5893 19.3881 21.3499 19.7464 21.0481 20.0481C20.7463 20.3499 20.388 20.5893 19.9937 20.7527C19.5994 20.916 19.1768 21.0001 18.75 21.0001H5.25C4.38805 21.0001 3.5614 20.6576 2.9519 20.0481C2.34241 19.4387 2 18.612 2 17.7501V8.25005C2 7.3881 2.34241 6.56145 2.9519 5.95195C3.5614 5.34246 4.38805 5.00005 5.25 5.00005H7.33L8.205 3.57605C8.40619 3.24827 8.68804 2.97753 9.02364 2.78969C9.35925 2.60184 9.7374 2.50315 10.122 2.50305H13.925V2.50405ZM12 8.00005C10.8065 8.00005 9.66193 8.47416 8.81802 9.31807C7.97411 10.162 7.5 11.3066 7.5 12.5001C7.5 13.6935 7.97411 14.8381 8.81802 15.682C9.66193 16.5259 10.8065 17.0001 12 17.0001C13.1935 17.0001 14.3381 16.5259 15.182 15.682C16.0259 14.8381 16.5 13.6935 16.5 12.5001C16.5 11.3066 16.0259 10.162 15.182 9.31807C14.3381 8.47416 13.1935 8.00005 12 8.00005ZM12 9.50005C12.394 9.50005 12.7841 9.57765 13.1481 9.72841C13.512 9.87918 13.8427 10.1002 14.1213 10.3787C14.3999 10.6573 14.6209 10.988 14.7716 11.352C14.9224 11.716 15 12.1061 15 12.5001C15 12.894 14.9224 13.2841 14.7716 13.6481C14.6209 14.0121 14.3999 14.3428 14.1213 14.6214C13.8427 14.8999 13.512 15.1209 13.1481 15.2717C12.7841 15.4225 12.394 15.5001 12 15.5001C11.2044 15.5001 10.4413 15.184 9.87868 14.6214C9.31607 14.0588 9 13.2957 9 12.5001C9 11.7044 9.31607 10.9413 9.87868 10.3787C10.4413 9.81612 11.2044 9.50005 12 9.50005Z" fill="#68686D"/>
</svg>
